HIERARCHY
ROOT Hips
{
	OFFSET 50.191700 -14.590616 100.473000
	CHANNELS 6 Xposition Yposition Zposition Xrotation Yrotation Zrotation
	JOINT spine
	{
		OFFSET 0.000000 -0.507026 8.817047
		CHANNELS 3 Xrotation Yrotation Zrotation
		JOINT spine1
		{
			OFFSET 0.000000 -0.000002 10.776604
			CHANNELS 3 Xrotation Yrotation Zrotation
			JOINT spine2
			{
				OFFSET 0.000000 -0.000001 10.325897
				CHANNELS 3 Xrotation Yrotation Zrotation
				JOINT Neck
				{
					OFFSET 0.000000 -1.263954 26.511002
					CHANNELS 3 Xrotation Yrotation Zrotation
					JOINT Head
					{
						OFFSET 0.000000 -0.000002 8.009659
						CHANNELS 3 Xrotation Yrotation Zrotation
						End Site
						{
							OFFSET 0.000000 6.393857 19.387894
						}
					}
				}
				JOINT RightShoulder
				{
					OFFSET -4.347950 0.605420 11.151199
					CHANNELS 3 Xrotation Yrotation Zrotation
					JOINT RightArm
					{
						OFFSET 0.000000 -0.000003 14.625793
						CHANNELS 3 Xrotation Yrotation Zrotation
						JOINT RightArmRoll
						{
							OFFSET 0.000000 -0.000001 7.383408
							CHANNELS 3 Xrotation Yrotation Zrotation
							JOINT RightForeArm
							{
								OFFSET 0.000000 -0.000004 21.505203
								CHANNELS 3 Xrotation Yrotation Zrotation
								JOINT RightForeArmRoll
								{
									OFFSET 0.000000 -0.000001 8.285324
									CHANNELS 3 Xrotation Yrotation Zrotation
									JOINT RightHand
									{
										OFFSET 0.000000 -0.000003 16.626801
										CHANNELS 3 Xrotation Yrotation Zrotation
										End Site
										{
											OFFSET 0.000000 0.000000 0.100006
										}
									}
								}
							}
						}
					}
				}
				JOINT LeftShoulder
				{
					OFFSET 4.347950 0.605420 11.151199
					CHANNELS 3 Xrotation Yrotation Zrotation
					JOINT LeftArm
					{
						OFFSET 0.000000 -0.000003 14.625793
						CHANNELS 3 Xrotation Yrotation Zrotation
						JOINT LeftArmRoll
						{
							OFFSET 0.000000 -0.000001 7.383408
							CHANNELS 3 Xrotation Yrotation Zrotation
							JOINT LeftForeArm
							{
								OFFSET 0.000000 -0.000004 21.505203
								CHANNELS 3 Xrotation Yrotation Zrotation
								JOINT LeftForeArmRoll
								{
									OFFSET 0.000000 -0.000001 8.285324
									CHANNELS 3 Xrotation Yrotation Zrotation
									JOINT LeftHand
									{
										OFFSET 0.000000 -0.000003 16.626801
										CHANNELS 3 Xrotation Yrotation Zrotation
										End Site
										{
											OFFSET 0.000000 0.000000 0.100006
										}
									}
								}
							}
						}
					}
				}
			}
		}
	}
	JOINT RightUpLeg
	{
		OFFSET -7.815102 1.202170 -1.433090
		CHANNELS 3 Xrotation Yrotation Zrotation
		JOINT RightUpLegRoll
		{
			OFFSET 0.000000 -0.000003 19.495903
			CHANNELS 3 Xrotation Yrotation Zrotation
			JOINT RightLeg
			{
				OFFSET 0.000000 0.000004 -24.142700
				CHANNELS 3 Xrotation Yrotation Zrotation
				JOINT RightLegRoll
				{
					OFFSET 0.000000 -0.000004 24.221703
					CHANNELS 3 Xrotation Yrotation Zrotation
					JOINT RightFoot
					{
						OFFSET 0.000000 -0.000004 20.160500
						CHANNELS 3 Xrotation Yrotation Zrotation
						JOINT RightToeBase
						{
							OFFSET 0.000000 -0.000003 16.853195
							CHANNELS 3 Xrotation Yrotation Zrotation
							End Site
							{
								OFFSET 0.007145 0.940779 8.161865
							}
						}
					}
				}
			}
		}
	}
	JOINT LeftUpLeg
	{
		OFFSET 7.815102 1.202170 -1.433090
		CHANNELS 3 Xrotation Yrotation Zrotation
		JOINT LeftUpLegRoll
		{
			OFFSET 0.000000 -0.000003 19.496002
			CHANNELS 3 Xrotation Yrotation Zrotation
			JOINT LeftLeg
			{
				OFFSET 0.000000 -0.000004 24.142601
				CHANNELS 3 Xrotation Yrotation Zrotation
				JOINT LeftLegRoll
				{
					OFFSET 0.000000 -0.000005 24.445602
					CHANNELS 3 Xrotation Yrotation Zrotation
					JOINT LeftFoot
					{
						OFFSET 0.000000 -0.000003 19.936600
						CHANNELS 3 Xrotation Yrotation Zrotation
						JOINT LeftToeBase
						{
							OFFSET 0.000000 -0.000003 16.853195
							CHANNELS 3 Xrotation Yrotation Zrotation
							End Site
							{
								OFFSET -0.032013 0.940779 8.161865
							}
						}
					}
				}
			}
		}
	}
}
MOTION
Frames: 9
Frame Time: 0.041667
52.700909 -10.624016 100.223000 -2.234548 -0.028921 27.007271 -0.080913 -0.421114 0.780166 3.847020 -0.835450 1.560287 5.491910 -0.816621 1.570181 18.793014 27.738961 12.546573 -11.361343 3.883982 13.360976 18.104969 -30.810488 28.269142 142.182231 -8.415189 90.176071 -0.000008 -0.000006 0.000003 66.367978 -18.328012 10.249362 -0.000006 0.000010 -3.003700 -5.000080 -7.998936 -0.000037 -39.323998 65.241584 45.590806 -3.779178 70.953050 49.275560 0.000003 -0.000000 0.000000 90.910351 -1.354079 6.456748 0.000005 -0.000016 2.999992 -4.999993 7.999919 0.000020 -6.131691 -173.834202 1.496332 -179.999991 0.000005 -1.276993 159.451763 -0.318368 -0.840348 -0.000003 -0.000002 0.558207 72.411002 6.741262 2.283215 27.081207 -7.296744 2.323533 -5.955975 174.050063 1.312694 -0.000004 -0.000004 -0.944580 -13.269846 2.165017 0.827297 -0.000002 -0.000001 -0.133075 71.312277 -6.134786 -4.046375 25.456904 7.349957 0.000005 
52.663212 -10.636919 100.212990 -2.214134 -0.012673 27.042112 -0.086937 -0.414601 0.778530 3.834856 -0.822526 1.557172 5.479741 -0.803749 1.566912 18.729664 27.424396 12.618426 -11.275097 4.104505 13.402852 18.199160 -31.173424 28.278747 142.188529 -8.671260 90.142296 -0.000005 -0.000007 0.000006 66.330296 -18.375751 10.314572 -0.000005 0.000010 -3.003702 -5.000080 -7.998934 -0.000038 -39.145744 64.999748 45.421769 -3.636282 71.101047 49.142368 -0.000003 0.000001 0.000000 90.763973 -1.310630 6.366739 0.000003 -0.000015 2.999992 -4.999995 7.999923 0.000016 -6.132436 -173.826252 1.523724 -179.999991 0.000005 -1.278003 159.499971 -0.357801 -0.846778 -0.000001 -0.000002 0.558085 72.408495 6.741157 2.285450 27.070746 -7.297303 2.309204 -6.006572 174.028712 1.318356 -0.000005 -0.000005 -0.942598 -13.297056 2.152695 0.828607 -0.000003 -0.000002 -0.133787 71.314941 -6.129578 -4.060667 25.456907 7.349962 0.000005 
52.614510 -10.634115 100.211998 -2.193375 0.004784 27.076485 -0.093083 -0.407841 0.776812 3.822462 -0.809112 1.553889 5.467340 -0.790388 1.563479 18.665626 27.102262 12.691688 -11.187257 4.330975 13.445182 18.296021 -31.541984 28.289431 142.195728 -8.927689 90.101847 -0.000007 -0.000007 0.000003 66.294342 -18.424748 10.381571 -0.000005 0.000010 -3.003699 -5.000080 -7.998932 -0.000037 -38.967039 64.751204 45.252172 -3.496590 71.252021 49.018417 0.000004 -0.000000 0.000000 90.621290 -1.269106 6.280875 0.000006 -0.000014 2.999988 -4.999990 7.999921 0.000019 -6.134091 -173.818329 1.552036 -179.999991 0.000005 -1.279004 159.549476 -0.398212 -0.852493 -0.000002 -0.000001 0.557900 72.404165 6.741061 2.287797 27.060269 -7.297850 2.294993 -6.058445 174.006432 1.323970 -0.000005 -0.000005 -0.940573 -13.324868 2.140420 0.829926 -0.000002 -0.000002 -0.134552 71.317830 -6.124372 -4.074952 25.456909 7.349963 0.000006 
52.579906 -10.655116 100.207985 -2.172367 0.023097 27.110578 -0.099305 -0.400909 0.775045 3.809897 -0.795354 1.550493 5.454772 -0.776685 1.559924 18.601557 26.774700 12.765398 -11.098496 4.561664 13.487826 18.395441 -31.914540 28.301524 142.203582 -9.183647 90.057301 -0.000008 -0.000006 0.000006 66.259624 -18.474664 10.449842 -0.000005 0.000009 -3.003699 -5.000080 -7.998934 -0.000037 -38.789262 64.497838 45.083275 -3.358584 71.405045 48.900435 -0.000003 -0.000000 0.000000 90.481135 -1.228778 6.197158 0.000006 -0.000016 2.999992 -4.999993 7.999923 0.000019 -6.136375 -173.810392 1.580999 -179.999991 0.000005 -1.280996 159.599965 -0.439582 -0.859488 -0.000002 -0.000001 0.557681 72.398468 6.741024 2.290234 27.049989 -7.298378 2.280899 -6.111193 173.984138 1.329487 -0.000004 -0.000004 -0.938510 -13.353179 2.128173 0.831244 -0.000002 -0.000002 -0.135357 71.321027 -6.119146 -4.089212 25.456909 7.349960 0.000007 
52.546013 -10.664616 100.200996 -2.151227 0.041908 27.144376 -0.105578 -0.393878 0.773248 3.797233 -0.781398 1.547051 5.442114 -0.762786 1.556316 18.537878 26.444071 12.839143 -11.009204 4.794832 13.530255 18.496994 -32.289289 28.315027 142.211437 -9.439872 90.010077 -0.000008 -0.000006 0.000003 66.225726 -18.525155 10.518789 -0.000006 0.000011 -3.003700 -5.000080 -7.998935 -0.000037 -38.613962 64.241570 44.916588 -3.220672 71.559339 48.784838 -0.000001 -0.000000 0.000001 90.342509 -1.188963 6.116158 0.000004 -0.000014 2.999990 -4.999996 7.999922 0.000018 -6.139035 -173.801458 1.610234 -179.999991 0.000005 -1.281994 159.650932 -0.481916 -0.865740 -0.000002 -0.000001 0.557434 72.392103 6.740957 2.292808 27.039631 -7.298898 2.266836 -6.164455 173.961858 1.334974 -0.000006 -0.000005 -0.936432 -13.381793 2.115933 0.832555 -0.000002 -0.000002 -0.136186 71.324230 -6.113952 -4.103479 25.456911 7.349961 0.000006 
52.507309 -10.679314 100.198982 -2.130060 0.060864 27.178166 -0.111863 -0.386822 0.771450 3.784550 -0.767392 1.543581 5.429435 -0.748837 1.552693 18.475081 26.112544 12.912159 -10.919942 5.028723 13.572060 18.600246 -32.664447 28.330032 142.219141 -9.695546 89.962539 -0.000007 -0.000007 0.000003 66.192019 -18.575879 10.587892 -0.000006 0.000008 -3.003699 -5.000080 -7.998933 -0.000038 -38.441940 63.984393 44.752776 -3.081167 71.713817 48.668171 0.000002 0.000000 0.000001 90.204321 -1.148972 6.035046 0.000007 -0.000015 2.999987 -4.999993 7.999923 0.000022 -6.141777 -173.792538 1.639551 -179.999991 0.000006 -1.283005 159.701994 -0.524292 -0.871923 -0.000001 -0.000003 0.557187 72.385539 6.740923 2.295199 27.029352 -7.299417 2.252811 -6.217862 173.938595 1.340590 -0.000004 -0.000005 -0.934349 -13.410405 2.103707 0.833856 -0.000002 -0.000002 -0.137016 71.327529 -6.108733 -4.117740 25.456907 7.349957 0.000004 
52.474911 -10.702014 100.194992 -2.108978 0.079605 27.212034 -0.118120 -0.379815 0.769663 3.771916 -0.753483 1.540162 5.416797 -0.734984 1.549113 18.413430 25.782508 12.984119 -10.830984 5.261595 13.612939 18.704712 -33.038212 28.346655 142.226163 -9.951399 89.916080 -0.000009 -0.000005 0.000003 66.158107 -18.626512 10.656644 -0.000005 0.000011 -3.003700 -5.000080 -7.998932 -0.000038 -38.274256 63.728103 44.592843 -2.938354 71.867612 48.546789 0.000001 0.000002 0.000001 90.065565 -1.108164 5.953336 0.000005 -0.000014 2.999988 -4.999991 7.999919 0.000018 -6.144320 -173.784628 1.668796 -179.999991 0.000005 -1.285002 159.752865 -0.565746 -0.878675 -0.000001 -0.000004 0.556945 72.379385 6.740843 2.297657 27.018984 -7.299931 2.238738 -6.271010 173.916342 1.346179 -0.000005 -0.000004 -0.932273 -13.438919 2.091464 0.835140 -0.000002 -0.000002 -0.137834 71.330725 -6.103507 -4.132003 25.456911 7.349955 0.000008 
52.436909 -10.714015 100.194000 -2.088087 0.097781 27.246169 -0.124323 -0.372931 0.767915 3.759404 -0.739816 1.536831 5.404280 -0.721371 1.545625 18.353553 25.456018 13.054242 -10.743090 5.491691 13.652539 18.810235 -33.408764 28.364927 142.232283 -10.207396 89.872688 -0.000008 -0.000007 0.000004 66.123348 -18.676691 10.724313 -0.000007 0.000010 -3.003699 -5.000080 -7.998932 -0.000036 -38.111960 63.474676 44.437798 -2.790461 72.019639 48.417299 -0.000001 0.000000 -0.000000 89.925191 -1.065780 5.870103 0.000005 -0.000014 2.999987 -4.999989 7.999921 0.000018 -6.146429 -173.776692 1.697578 -179.999991 0.000005 -1.285997 159.803013 -0.607223 -0.884372 -0.000001 -0.000003 0.556739 72.374112 6.740782 2.300065 27.008615 -7.300453 2.224604 -6.323533 173.894089 1.351904 -0.000004 -0.000005 -0.930221 -13.467134 2.079207 0.836410 -0.000002 -0.000002 -0.138629 71.333826 -6.098316 -4.146277 25.456911 7.349965 0.000004 
52.420307 -10.687815 100.184998 -2.067510 0.115027 27.280655 -0.130426 -0.366244 0.766231 3.747082 -0.726540 1.533629 5.391951 -0.708148 1.542265 18.295657 25.135364 13.122289 -10.656520 5.717257 13.690586 18.916067 -33.774442 28.384735 142.237064 -10.464289 89.833660 -0.000006 -0.000008 0.000004 66.087312 -18.726089 10.790405 -0.000006 0.000011 -3.003698 -5.000081 -7.998928 -0.000037 -37.955669 63.226057 44.288227 -2.635756 72.169227 48.275920 0.000000 0.000001 0.000000 89.782160 -1.021127 5.784351 0.000004 -0.000015 2.999989 -4.999991 7.999919 0.000019 -6.147795 -173.768769 1.725618 -179.999991 0.000005 -1.288005 159.852053 -0.646837 -0.890324 -0.000001 -0.000002 0.556575 72.370219 6.740697 2.302486 26.998240 -7.300968 2.210373 -6.375048 173.871836 1.357824 -0.000006 -0.000005 -0.928209 -13.494746 2.066908 0.837646 -0.000002 -0.000002 -0.139382 71.336709 -6.093087 -4.160658 25.456907 7.349962 0.000004 
